# Blender 4.1.1
# www.blender.org
mtllib hook.mtl
o hook
v 0.643586 -0.368158 -0.209114
v 0.547467 -0.368158 -0.397758
v 0.547467 0.049813 -0.397758
v 0.643586 0.049813 -0.209114
v 0.397757 -0.368158 -0.547467
v 0.397757 0.049813 -0.547467
v 0.209113 -0.368158 -0.643586
v 0.209113 0.049813 -0.643586
v -0.000001 -0.368158 -0.676707
v -0.000001 0.049813 -0.676707
v -0.209116 -0.368158 -0.643586
v -0.209116 0.049813 -0.643586
v -0.397760 -0.368158 -0.547467
v -0.397760 0.049813 -0.547467
v -0.547469 -0.368158 -0.397758
v -0.547469 0.049813 -0.397758
v -0.643588 -0.368158 -0.209114
v -0.643588 0.049813 -0.209114
v -0.676708 -0.368158 0.000000
v -0.676708 0.049813 0.000000
v -0.643588 -0.368158 0.209114
v -0.643588 0.049813 0.209114
v -0.547469 -0.368158 0.397758
v -0.547469 0.049813 0.397758
v -0.397760 -0.368158 0.547468
v -0.397760 0.049813 0.547468
v -0.209116 -0.368158 0.643587
v -0.209116 0.049813 0.643587
v -0.000001 -0.368158 0.676707
v -0.000001 0.049813 0.676707
v 0.209113 -0.368158 0.643587
v 0.209113 0.049813 0.643587
v 0.397757 -0.368158 0.547467
v 0.397757 0.049813 0.547467
v 0.547466 -0.368158 0.397758
v 0.547466 0.049813 0.397758
v 0.643585 -0.368158 0.209114
v 0.643585 0.049813 0.209114
v 0.676705 -0.368158 0.000000
v 0.676705 0.049813 0.000000
v -0.000001 -0.368158 0.000000
v 0.364977 0.049813 -0.265172
v 0.429057 0.049813 -0.139409
v 0.265171 0.049813 -0.364978
v 0.139408 0.049813 -0.429058
v -0.000001 0.049813 -0.451138
v -0.139411 0.049813 -0.429058
v -0.265174 0.049813 -0.364978
v -0.364980 0.049813 -0.265172
v -0.429059 0.049813 -0.139409
v -0.451139 0.049813 0.000000
v -0.429059 0.049813 0.139410
v -0.364980 0.049813 0.265173
v -0.265174 0.049813 0.364979
v -0.139411 0.049813 0.429058
v -0.000001 0.049813 0.451138
v 0.139408 0.049813 0.429058
v 0.265171 0.049813 0.364979
v 0.364977 0.049813 0.265173
v 0.429056 0.049813 0.139410
v 0.451137 0.049813 0.000000
v 0.415077 0.273294 -0.134867
v 0.436437 0.273294 0.000000
v 0.415076 0.273294 0.134867
v 0.353085 0.273294 0.256532
v 0.256530 0.273294 0.353086
v 0.134865 0.273294 0.415078
v -0.000001 0.273294 0.436438
v -0.134868 0.273294 0.415078
v -0.256534 0.273294 0.353086
v -0.353087 0.273294 0.256532
v -0.415079 0.273294 0.134867
v -0.436440 0.273294 0.000000
v -0.415079 0.273294 -0.134867
v -0.353087 0.273294 -0.256532
v -0.256534 0.273294 -0.353086
v -0.134868 0.273294 -0.415077
v -0.000001 0.273294 -0.436438
v 0.134865 0.273294 -0.415077
v 0.256530 0.273294 -0.353086
v 0.353085 0.273294 -0.256532
v -0.000001 0.273294 0.000000
vn 0.9510 -0.0000 -0.3090
vn 0.8090 -0.0000 -0.5878
vn 0.5878 -0.0000 -0.8090
vn 0.3090 -0.0000 -0.9510
vn 0.3090 -0.0000 -0.9511
vn -0.0000 -0.0000 -1.0000
vn -0.3090 -0.0000 -0.9511
vn -0.3090 -0.0000 -0.9510
vn -0.5878 -0.0000 -0.8090
vn -0.5878 -0.0001 -0.8090
vn -0.8090 -0.0000 -0.5878
vn -0.9510 -0.0000 -0.3090
vn -0.9511 -0.0000 -0.3090
vn -1.0000 -0.0000 -0.0000
vn -0.9511 -0.0000 0.3090
vn -0.9510 -0.0000 0.3090
vn -0.8090 -0.0000 0.5878
vn -0.5878 -0.0000 0.8090
vn -0.3090 -0.0000 0.9510
vn -0.3090 -0.0000 0.9511
vn -0.0000 -0.0000 1.0000
vn 0.3090 -0.0000 0.9511
vn 0.3091 -0.0000 0.9510
vn 0.5878 -0.0000 0.8090
vn 0.8090 -0.0000 0.5878
vn 0.9510 -0.0000 0.3090
vn 0.9511 -0.0000 0.3090
vn 1.0000 -0.0000 -0.0000
vn 1.0000 -0.0001 -0.0000
vn 0.9511 -0.0000 -0.3090
vn 0.9511 -0.0001 -0.3090
vn -0.0000 -1.0000 -0.0000
vn 0.5310 0.8296 -0.1725
vn -0.0000 1.0000 -0.0000
vn 0.4517 0.8296 -0.3282
vn 0.3282 0.8296 -0.4517
vn 0.1726 0.8296 -0.5310
vn 0.1725 0.8296 -0.5310
vn -0.0000 0.8296 -0.5583
vn -0.1725 0.8296 -0.5310
vn -0.3282 0.8296 -0.4517
vn -0.4517 0.8296 -0.3282
vn -0.5310 0.8296 -0.1725
vn -0.5583 0.8296 -0.0000
vn -0.5310 0.8296 0.1725
vn -0.4517 0.8296 0.3282
vn -0.3282 0.8296 0.4517
vn -0.1726 0.8296 0.5310
vn -0.1725 0.8296 0.5310
vn -0.0000 0.8296 0.5583
vn 0.1725 0.8296 0.5310
vn 0.3282 0.8296 0.4517
vn 0.4517 0.8296 0.3282
vn 0.5310 0.8296 0.1725
vn 0.5583 0.8296 -0.0000
vn 0.7343 0.6788 -0.0001
vn 0.5310 0.8296 -0.1726
vn 0.6984 0.6788 -0.2269
vn 0.7343 0.6788 -0.0000
vn 0.6984 0.6788 0.2268
vn 0.5583 0.8296 -0.0001
vn 0.6984 0.6788 0.2269
vn 0.5941 0.6789 0.4315
vn 0.5941 0.6788 0.4316
vn 0.4317 0.6788 0.5940
vn 0.4517 0.8296 0.3281
vn 0.5940 0.6788 0.4316
vn 0.4316 0.6788 0.5941
vn 0.2270 0.6788 0.6983
vn 0.2269 0.6788 0.6984
vn 0.0001 0.6788 0.7343
vn 0.1726 0.8296 0.5310
vn -0.0000 0.6788 0.7343
vn -0.2268 0.6788 0.6984
vn 0.0001 0.8296 0.5583
vn -0.2269 0.6788 0.6984
vn -0.4316 0.6788 0.5941
vn -0.2269 0.6788 0.6983
vn -0.5940 0.6788 0.4317
vn -0.3281 0.8296 0.4517
vn -0.4316 0.6789 0.5940
vn -0.5941 0.6788 0.4316
vn -0.6983 0.6789 0.2269
vn -0.4516 0.8296 0.3282
vn -0.6984 0.6788 0.2269
vn -0.7343 0.6789 0.0001
vn -0.5310 0.8296 0.1726
vn -0.7343 0.6788 -0.0000
vn -0.6984 0.6788 -0.2268
vn -0.5583 0.8296 0.0001
vn -0.6984 0.6788 -0.2269
vn -0.5941 0.6788 -0.4315
vn -0.6983 0.6789 -0.2269
vn -0.5940 0.6789 -0.4316
vn -0.4317 0.6788 -0.5940
vn -0.4517 0.8296 -0.3281
vn -0.5940 0.6788 -0.4316
vn -0.4316 0.6788 -0.5941
vn -0.2270 0.6788 -0.6983
vn -0.2269 0.6788 -0.6984
vn -0.0001 0.6788 -0.7343
vn -0.1726 0.8296 -0.5310
vn -0.0000 0.6788 -0.7343
vn 0.2268 0.6788 -0.6984
vn -0.0001 0.8296 -0.5583
vn 0.2269 0.6788 -0.6984
vn 0.4315 0.6788 -0.5941
vn 0.2269 0.6788 -0.6983
vn 0.4316 0.6788 -0.5940
vn 0.5940 0.6788 -0.4317
vn 0.3281 0.8296 -0.4517
vn 0.5941 0.6788 -0.4316
vn 0.6983 0.6789 -0.2269
vn -0.5941 0.6788 -0.4316
vn 0.4316 0.6788 -0.5941
vt 0.025396 0.312791
vt 0.004199 0.217004
vt 0.052720 0.206267
vt 0.073916 0.302054
vt 0.101240 0.195530
vt 0.122436 0.291317
vt 0.149760 0.184794
vt 0.170956 0.280581
vt 0.198281 0.174057
vt 0.219477 0.269844
vt 0.246801 0.163320
vt 0.267997 0.259107
vt 0.295321 0.152584
vt 0.316517 0.248371
vt 0.343841 0.141847
vt 0.365037 0.237634
vt 0.392362 0.131110
vt 0.413558 0.226897
vt 0.440882 0.120373
vt 0.462078 0.216160
vt 0.489402 0.109637
vt 0.510598 0.205424
vt 0.537922 0.098900
vt 0.559118 0.194687
vt 0.586443 0.088163
vt 0.607639 0.183950
vt 0.634963 0.077427
vt 0.656159 0.173214
vt 0.683483 0.066690
vt 0.704679 0.162477
vt 0.732003 0.055953
vt 0.753199 0.151740
vt 0.780524 0.045216
vt 0.801720 0.141003
vt 0.829044 0.034480
vt 0.850240 0.130267
vt 0.877564 0.023743
vt 0.898760 0.119530
vt 0.926084 0.013006
vt 0.947280 0.108793
vt 0.974604 0.002270
vt 0.995800 0.098057
vt 0.588063 0.286003
vt 0.610623 0.330281
vt 0.459564 0.379363
vt 0.552924 0.250864
vt 0.508646 0.228303
vt 0.459564 0.220530
vt 0.410482 0.228303
vt 0.366204 0.250864
vt 0.331065 0.286003
vt 0.308505 0.330281
vt 0.300731 0.379363
vt 0.308505 0.428445
vt 0.331065 0.472723
vt 0.366204 0.507862
vt 0.410482 0.530422
vt 0.459564 0.538196
vt 0.508646 0.530422
vt 0.552924 0.507862
vt 0.588063 0.472723
vt 0.610623 0.428445
vt 0.618397 0.379363
vt 0.934155 0.370276
vt 0.985041 0.384912
vt 0.960093 0.438410
vt 0.916220 0.408765
vt 0.919834 0.481580
vt 0.887269 0.439829
vt 0.868205 0.510197
vt 0.850137 0.460425
vt 0.810261 0.521459
vt 0.808456 0.468540
vt 0.751672 0.514263
vt 0.766309 0.463377
vt 0.698175 0.489315
vt 0.727819 0.445442
vt 0.655005 0.449057
vt 0.696756 0.416492
vt 0.626388 0.397429
vt 0.676159 0.379359
vt 0.615126 0.339485
vt 0.668045 0.337679
vt 0.622320 0.280896
vt 0.673207 0.295532
vt 0.647268 0.227398
vt 0.691141 0.257042
vt 0.687526 0.184228
vt 0.720092 0.225979
vt 0.739154 0.155611
vt 0.757224 0.205381
vt 0.797099 0.144348
vt 0.798905 0.197267
vt 0.855688 0.151542
vt 0.841052 0.202429
vt 0.909186 0.176490
vt 0.879542 0.220363
vt 0.952357 0.216749
vt 0.910606 0.249314
vt 0.980974 0.268378
vt 0.931203 0.286447
vt 0.992236 0.326323
vt 0.939318 0.328128
vt 0.894467 0.330280
vt 0.890834 0.358463
vt 0.889213 0.302354
vt 0.875587 0.277418
vt 0.854921 0.257914
vt 0.829241 0.245750
vt 0.801058 0.242118
vt 0.773132 0.247372
vt 0.748196 0.260998
vt 0.728692 0.281663
vt 0.716528 0.307344
vt 0.712896 0.335526
vt 0.718149 0.363452
vt 0.731776 0.388388
vt 0.752441 0.407892
vt 0.778121 0.420056
vt 0.806304 0.423689
vt 0.834230 0.418435
vt 0.859166 0.404809
vt 0.878670 0.384144
vt 0.803681 0.332903
s 0
usemtl standardSurface1.001
f 4/1/1 1/2/1 2/3/2
f 2/3/2 3/4/2 4/1/1
f 3/4/2 2/3/2 5/5/3
f 5/5/3 6/6/3 3/4/2
f 6/6/3 5/5/3 7/7/4
f 7/7/4 8/8/4 6/6/3
f 8/8/5 7/7/5 9/9/6
f 9/9/6 10/10/6 8/8/5
f 10/10/6 9/9/6 11/11/7
f 11/11/7 12/12/7 10/10/6
f 12/12/8 11/11/8 13/13/9
f 13/13/9 14/14/10 12/12/8
f 14/14/9 13/13/9 15/15/11
f 15/15/11 16/16/11 14/14/9
f 16/16/11 15/15/11 17/17/12
f 17/17/12 18/18/12 16/16/11
f 18/18/13 17/17/13 19/19/14
f 19/19/14 20/20/14 18/18/13
f 20/20/14 19/19/14 21/21/15
f 21/21/15 22/22/15 20/20/14
f 22/22/16 21/21/16 23/23/17
f 23/23/17 24/24/17 22/22/16
f 24/24/17 23/23/17 25/25/18
f 25/25/18 26/26/18 24/24/17
f 26/26/18 25/25/18 27/27/19
f 27/27/19 28/28/19 26/26/18
f 28/28/20 27/27/20 29/29/21
f 29/29/21 30/30/21 28/28/20
f 30/30/21 29/29/21 31/31/22
f 31/31/22 32/32/22 30/30/21
f 32/32/23 31/31/23 33/33/24
f 33/33/24 34/34/24 32/32/23
f 34/34/24 33/33/24 35/35/25
f 35/35/25 36/36/25 34/34/24
f 36/36/25 35/35/25 37/37/26
f 37/37/26 38/38/26 36/36/25
f 38/38/27 37/37/27 39/39/28
f 39/39/28 40/40/29 38/38/27
f 40/40/28 39/39/28 1/41/30
f 1/41/30 4/42/31 40/40/28
f 2/43/32 1/44/32 41/45/32
f 5/46/32 2/43/32 41/45/32
f 7/47/32 5/46/32 41/45/32
f 9/48/32 7/47/32 41/45/32
f 11/49/32 9/48/32 41/45/32
f 13/50/32 11/49/32 41/45/32
f 15/51/32 13/50/32 41/45/32
f 17/52/32 15/51/32 41/45/32
f 19/53/32 17/52/32 41/45/32
f 21/54/32 19/53/32 41/45/32
f 23/55/32 21/54/32 41/45/32
f 25/56/32 23/55/32 41/45/32
f 27/57/32 25/56/32 41/45/32
f 29/58/32 27/57/32 41/45/32
f 31/59/32 29/58/32 41/45/32
f 33/60/32 31/59/32 41/45/32
f 35/61/32 33/60/32 41/45/32
f 37/62/32 35/61/32 41/45/32
f 39/63/32 37/62/32 41/45/32
f 1/44/32 39/63/32 41/45/32
f 43/64/33 4/65/34 3/66/34
f 3/66/34 42/67/35 43/64/33
f 42/67/35 3/66/34 6/68/34
f 6/68/34 44/69/36 42/67/35
f 44/69/36 6/68/34 8/70/34
f 8/70/34 45/71/37 44/69/36
f 45/71/38 8/70/34 10/72/34
f 10/72/34 46/73/39 45/71/38
f 46/73/39 10/72/34 12/74/34
f 12/74/34 47/75/40 46/73/39
f 47/75/40 12/74/34 14/76/34
f 14/76/34 48/77/41 47/75/40
f 48/77/41 14/76/34 16/78/34
f 16/78/34 49/79/42 48/77/41
f 49/79/42 16/78/34 18/80/34
f 18/80/34 50/81/43 49/79/42
f 50/81/43 18/80/34 20/82/34
f 20/82/34 51/83/44 50/81/43
f 51/83/44 20/82/34 22/84/34
f 22/84/34 52/85/45 51/83/44
f 52/85/45 22/84/34 24/86/34
f 24/86/34 53/87/46 52/85/45
f 53/87/46 24/86/34 26/88/34
f 26/88/34 54/89/47 53/87/46
f 54/89/47 26/88/34 28/90/34
f 28/90/34 55/91/48 54/89/47
f 55/91/49 28/90/34 30/92/34
f 30/92/34 56/93/50 55/91/49
f 56/93/50 30/92/34 32/94/34
f 32/94/34 57/95/51 56/93/50
f 57/95/51 32/94/34 34/96/34
f 34/96/34 58/97/52 57/95/51
f 58/97/52 34/96/34 36/98/34
f 36/98/34 59/99/53 58/97/52
f 59/99/53 36/98/34 38/100/34
f 38/100/34 60/101/54 59/99/53
f 60/101/54 38/100/34 40/102/34
f 40/102/34 61/103/55 60/101/54
f 61/103/55 40/102/34 4/65/34
f 4/65/34 43/64/33 61/103/55
f 63/104/56 61/103/55 43/64/57
f 43/64/57 62/105/58 63/104/59
f 64/106/60 60/101/54 61/103/61
f 61/103/55 63/104/59 64/106/62
f 65/107/63 59/99/53 60/101/54
f 60/101/54 64/106/62 65/107/64
f 66/108/65 58/97/52 59/99/66
f 59/99/66 65/107/67 66/108/68
f 67/109/69 57/95/51 58/97/52
f 58/97/52 66/108/68 67/109/70
f 68/110/71 56/93/50 57/95/72
f 57/95/72 67/109/70 68/110/73
f 69/111/74 55/91/49 56/93/75
f 56/93/50 68/110/73 69/111/76
f 70/112/77 54/89/47 55/91/49
f 55/91/49 69/111/78 70/112/77
f 71/113/79 53/87/46 54/89/80
f 54/89/80 70/112/81 71/113/82
f 72/114/83 52/85/45 53/87/84
f 53/87/46 71/113/82 72/114/85
f 73/115/86 51/83/44 52/85/87
f 52/85/87 72/114/85 73/115/88
f 74/116/89 50/81/43 51/83/90
f 51/83/44 73/115/88 74/116/91
f 75/117/92 49/79/42 50/81/43
f 50/81/43 74/116/93 75/117/94
f 76/118/95 48/77/41 49/79/96
f 49/79/96 75/117/97 76/118/98
f 77/119/99 47/75/40 48/77/41
f 48/77/41 76/118/98 77/119/100
f 78/120/101 46/73/39 47/75/102
f 47/75/102 77/119/100 78/120/103
f 79/121/104 45/71/38 46/73/105
f 46/73/39 78/120/103 79/121/106
f 80/122/107 44/69/36 45/71/38
f 45/71/38 79/121/108 80/122/109
f 81/123/110 42/67/35 44/69/111
f 44/69/111 80/122/109 81/123/112
f 62/105/113 43/64/33 42/67/35
f 42/67/35 81/123/112 62/105/58
f 63/104/59 62/105/58 82/124/34
f 64/106/62 63/104/59 82/124/34
f 65/107/64 64/106/62 82/124/34
f 66/108/68 65/107/64 82/124/34
f 67/109/70 66/108/68 82/124/34
f 68/110/73 67/109/70 82/124/34
f 69/111/76 68/110/73 82/124/34
f 70/112/77 69/111/76 82/124/34
f 71/113/82 70/112/77 82/124/34
f 72/114/85 71/113/82 82/124/34
f 73/115/88 72/114/85 82/124/34
f 74/116/91 73/115/88 82/124/34
f 75/117/114 74/116/91 82/124/34
f 76/118/98 75/117/114 82/124/34
f 77/119/100 76/118/98 82/124/34
f 78/120/103 77/119/100 82/124/34
f 79/121/106 78/120/103 82/124/34
f 80/122/115 79/121/106 82/124/34
f 81/123/112 80/122/115 82/124/34
f 62/105/58 81/123/112 82/124/34
