# Blender 4.1.0
# www.blender.org
o Cube.002
v 1.147929 1.805336 -3.050998
v 1.147929 1.714224 -3.050998
v 1.147929 1.805336 3.050998
v 1.147929 1.714224 3.050998
v -1.147929 1.805336 -3.050998
v -1.147929 1.714224 -3.050998
v -1.147929 1.805336 3.050998
v -1.147929 1.714224 3.050998
vn -0.0000 1.0000 -0.0000
vn -0.0000 -0.0000 1.0000
vn -1.0000 -0.0000 -0.0000
vn -0.0000 -1.0000 -0.0000
vn 1.0000 -0.0000 -0.0000
vn -0.0000 -0.0000 -1.0000
vt 0.376247 1.000000
vt 0.000000 1.000000
vt 0.000000 0.000000
vt 0.376247 0.000000
vt 0.797289 0.376247
vt 0.782358 0.376247
vt 0.782358 0.000000
vt 0.797289 0.000000
vt 0.767426 1.000000
vt 0.752494 1.000000
vt 0.752494 0.000000
vt 0.767426 0.000000
vt 0.752494 1.000000
vt 0.376247 1.000000
vt 0.376247 -0.000000
vt 0.752494 0.000000
vt 0.782358 1.000000
vt 0.767426 1.000000
vt 0.767426 0.000000
vt 0.782358 0.000000
vt 0.797289 0.752494
vt 0.782358 0.752494
s 0
f 1/1/1 5/2/1 7/3/1 3/4/1
f 4/5/2 3/6/2 7/7/2 8/8/2
f 8/9/3 7/10/3 5/11/3 6/12/3
f 6/13/4 2/14/4 4/15/4 8/16/4
f 2/17/5 1/18/5 3/19/5 4/20/5
f 6/21/6 5/22/6 1/6/6 2/5/6
