# Blender 4.1.0
# www.blender.org
o tube1
v 0.888918 0.655696 2.147269
v 0.888918 1.351899 2.147269
v 0.922859 0.655696 2.161328
v 0.922859 1.351899 2.161328
v 0.936918 0.655696 2.195269
v 0.936918 1.351899 2.195269
v 0.922859 0.655696 2.229210
v 0.922859 1.351899 2.229210
v 0.888918 0.655696 2.243269
v 0.888918 1.351899 2.243269
v 0.854977 0.655696 2.229210
v 0.854977 1.351899 2.229210
v 0.840918 0.655696 2.195269
v 0.840918 1.351899 2.195269
v 0.854977 0.655696 2.161328
v 0.854977 1.351899 2.161328
v 0.884012 1.385481 2.147269
v 0.916292 1.395969 2.161328
v 0.929662 1.400314 2.195269
v 0.916292 1.395969 2.229210
v 0.884012 1.385481 2.243269
v 0.851732 1.374992 2.229210
v 0.838361 1.370648 2.195269
v 0.851732 1.374992 2.161328
v 0.868967 1.415903 2.147269
v 0.896426 1.435853 2.161328
v 0.907800 1.444117 2.195269
v 0.896426 1.435853 2.229210
v 0.868967 1.415903 2.243269
v 0.841509 1.395953 2.229210
v 0.830135 1.387689 2.195269
v 0.841509 1.395953 2.161328
v 0.845259 1.440188 2.147269
v 0.865209 1.467646 2.161328
v 0.873472 1.479020 2.195269
v 0.865209 1.467646 2.229210
v 0.845259 1.440188 2.243269
v 0.825309 1.412729 2.229210
v 0.817045 1.401355 2.195269
v 0.825309 1.412729 2.161328
v 0.815206 1.455957 2.147269
v 0.825695 1.488237 2.161328
v 0.830039 1.501608 2.195269
v 0.825695 1.488237 2.229210
v 0.815206 1.455957 2.243269
v 0.804718 1.423677 2.229210
v 0.800373 1.410306 2.195269
v 0.804718 1.423677 2.161328
v 0.781751 1.461668 2.147269
v 0.781751 1.495609 2.161328
v 0.781751 1.509668 2.195269
v 0.781751 1.495609 2.229210
v 0.781751 1.461668 2.243269
v 0.781751 1.427727 2.229210
v 0.781751 1.413668 2.195269
v 0.781751 1.427727 2.161328
v -0.440224 1.461668 2.147269
v -0.440224 1.495609 2.161328
v -0.440224 1.509668 2.195269
v -0.440224 1.495609 2.229210
v -0.440224 1.461668 2.243269
v -0.440224 1.427727 2.229210
v -0.440224 1.413668 2.195269
v -0.440224 1.427727 2.161328
v -0.479613 1.468942 2.147269
v -0.469125 1.501222 2.161328
v -0.464780 1.514593 2.195269
v -0.469125 1.501222 2.229210
v -0.479613 1.468942 2.243269
v -0.490101 1.436662 2.229210
v -0.494446 1.423291 2.195269
v -0.490101 1.436662 2.161328
v -0.514826 1.488032 2.147269
v -0.494876 1.515491 2.161328
v -0.486612 1.526865 2.195269
v -0.494876 1.515491 2.229210
v -0.514826 1.488032 2.243269
v -0.534776 1.460573 2.229210
v -0.543040 1.449199 2.195269
v -0.534776 1.460573 2.161328
v -0.542417 1.517069 2.147269
v -0.514958 1.537019 2.161328
v -0.503584 1.545283 2.195269
v -0.514958 1.537019 2.229210
v -0.542417 1.517069 2.243269
v -0.569876 1.497119 2.229210
v -0.581249 1.488855 2.195269
v -0.569876 1.497119 2.161328
v -0.559684 1.553211 2.147269
v -0.527404 1.563699 2.161328
v -0.514033 1.568043 2.195269
v -0.527404 1.563699 2.229210
v -0.559684 1.553211 2.243269
v -0.591964 1.542722 2.229210
v -0.605335 1.538378 2.195269
v -0.591964 1.542722 2.161328
v -0.564938 1.592920 2.147269
v -0.530997 1.592919 2.161328
v -0.516938 1.592919 2.195269
v -0.530997 1.592919 2.229210
v -0.564938 1.592920 2.243269
v -0.598879 1.592919 2.229210
v -0.612938 1.592919 2.195269
v -0.598879 1.592919 2.161328
v -0.564938 1.944709 2.147269
v -0.530997 1.944709 2.161328
v -0.516938 1.944709 2.195269
v -0.530997 1.944709 2.229210
v -0.564938 1.944709 2.243269
v -0.598879 1.944709 2.229210
v -0.612938 1.944709 2.195269
v -0.598879 1.944709 2.161328
vn -0.0000 -0.6303 -0.7764
vn 0.0176 0.0030 -0.9998
vn 0.5490 -0.6303 -0.5490
vn 0.7148 0.0531 -0.6974
vn 0.7764 -0.6303 -0.0000
vn 0.9973 0.0728 -0.0000
vn 0.5490 -0.6303 0.5490
vn 0.7148 0.0531 0.6974
vn -0.0000 -0.6303 0.7764
vn 0.0176 0.0030 0.9998
vn -0.5490 -0.6303 0.5490
vn -0.6977 -0.0488 0.7147
vn -0.7764 -0.6303 -0.0000
vn -0.9975 -0.0700 -0.0000
vn -0.5490 -0.6303 -0.5490
vn -0.6977 -0.0488 -0.7147
vn 0.0364 0.0117 -0.9993
vn 0.6918 0.2178 -0.6885
vn 0.9536 0.3010 -0.0000
vn 0.6918 0.2178 0.6885
vn 0.0364 0.0117 0.9993
vn -0.6570 -0.2007 0.7267
vn -0.9571 -0.2899 -0.0000
vn -0.6570 -0.2007 -0.7267
vn 0.0310 0.0223 -0.9993
vn 0.5906 0.4209 -0.6885
vn 0.8139 0.5810 -0.0000
vn 0.5906 0.4209 0.6885
vn 0.0310 0.0223 0.9993
vn -0.5628 -0.3939 0.7267
vn -0.8206 -0.5714 -0.0000
vn -0.5628 -0.3939 -0.7267
vn 0.0226 0.0308 -0.9993
vn 0.4316 0.5828 -0.6885
vn 0.5945 0.8041 -0.0000
vn 0.4316 0.5828 0.6885
vn 0.0226 0.0308 0.9993
vn -0.4136 -0.5486 0.7267
vn -0.6039 -0.7971 -0.0000
vn -0.4136 -0.5486 -0.7267
vn 0.0119 0.0363 -0.9993
vn 0.2304 0.6877 -0.6885
vn 0.3170 0.9484 -0.0000
vn 0.2304 0.6877 0.6885
vn 0.0119 0.0363 0.9993
vn -0.2238 -0.6495 0.7267
vn -0.3280 -0.9447 -0.0000
vn -0.2238 -0.6495 -0.7267
vn 0.0031 0.0206 -0.9998
vn 0.0597 0.7151 -0.6965
vn 0.0812 0.9967 -0.0000
vn 0.0597 0.7151 0.6965
vn 0.0031 0.0206 0.9998
vn -0.0609 -0.6942 0.7172
vn -0.0900 -0.9959 -0.0000
vn -0.0609 -0.6942 -0.7172
vn -0.0034 -0.0222 -0.9997
vn 0.0668 0.6923 -0.7185
vn 0.0995 0.9950 -0.0000
vn 0.0668 0.6923 0.7185
vn -0.0034 -0.0222 0.9997
vn -0.0637 -0.7153 0.6959
vn -0.0863 -0.9963 -0.0000
vn -0.0637 -0.7153 -0.6959
vn -0.0123 -0.0361 -0.9993
vn 0.2350 0.6457 -0.7266
vn 0.3459 0.9383 -0.0000
vn 0.2350 0.6457 0.7266
vn -0.0123 -0.0361 0.9993
vn -0.2380 -0.6851 0.6885
vn -0.3267 -0.9451 -0.0000
vn -0.2380 -0.6851 -0.6885
vn -0.0229 -0.0306 -0.9993
vn 0.4231 0.5414 -0.7266
vn 0.6189 0.7855 -0.0000
vn 0.4231 0.5414 0.7266
vn -0.0229 -0.0306 0.9993
vn -0.4381 -0.5780 0.6885
vn -0.6027 -0.7979 -0.0000
vn -0.4381 -0.5780 -0.6885
vn -0.0312 -0.0220 -0.9993
vn 0.5697 0.3842 -0.7266
vn 0.8313 0.5557 -0.0000
vn 0.5697 0.3842 0.7266
vn -0.0312 -0.0220 0.9993
vn -0.5952 -0.4144 0.6885
vn -0.8198 -0.5726 -0.0000
vn -0.5952 -0.4144 -0.6885
vn -0.0365 -0.0113 -0.9993
vn 0.6605 0.1894 -0.7266
vn 0.9624 0.2716 -0.0000
vn 0.6605 0.1894 0.7266
vn -0.0365 -0.0113 0.9993
vn -0.6942 -0.2101 0.6885
vn -0.9566 -0.2913 -0.0000
vn -0.6942 -0.2101 -0.6885
vn -0.0159 -0.0028 -0.9999
vn 0.6994 0.0428 -0.7135
vn 0.9982 0.0606 -0.0000
vn 0.6994 0.0428 0.7135
vn -0.0159 -0.0028 0.9999
vn -0.7145 -0.0491 0.6979
vn -0.9977 -0.0677 -0.0000
vn -0.7145 -0.0491 -0.6979
vn -0.0000 0.6303 -0.7764
vn 0.5490 0.6303 -0.5490
vn 0.7764 0.6303 -0.0000
vn 0.5490 0.6303 0.5490
vn -0.0000 0.6303 0.7764
vn -0.5490 0.6303 0.5490
vn -0.7764 0.6303 -0.0000
vn -0.5490 0.6303 -0.5490
vt 0.420899 0.569735
vt 0.420899 -0.000000
vt 0.450963 -0.000000
vt 0.450963 0.569735
vt 0.300642 0.569735
vt 0.300642 0.000000
vt 0.330706 0.000000
vt 0.330706 0.569735
vt 0.330706 0.569735
vt 0.330706 -0.000000
vt 0.360770 -0.000000
vt 0.360770 0.569735
vt 0.450963 0.569735
vt 0.450963 0.000000
vt 0.481027 0.000000
vt 0.481027 0.569735
vt 0.240514 0.569735
vt 0.240514 0.000000
vt 0.270578 0.000000
vt 0.270578 0.569735
vt 0.270578 -0.000000
vt 0.300642 -0.000000
vt 0.300642 0.569735
vt 0.643753 0.610467
vt 0.613737 0.612172
vt 0.613737 0.572109
vt 0.643741 0.574004
vt 0.360770 0.569735
vt 0.360770 -0.000000
vt 0.390835 -0.000000
vt 0.390835 0.569735
vt 0.390835 0.569735
vt 0.390835 -0.000000
vt 0.420899 -0.000000
vt 0.420899 0.569735
vt 0.613737 0.411791
vt 0.592478 0.433049
vt 0.562414 0.433049
vt 0.541156 0.411790
vt 0.541156 0.381726
vt 0.562414 0.360468
vt 0.592478 0.360468
vt 0.613737 0.381726
vt 0.692680 0.060063
vt 0.691079 0.090084
vt 0.675593 0.090060
vt 0.673595 0.060063
vt 0.675196 0.300234
vt 0.673595 0.270213
vt 0.692680 0.270213
vt 0.690682 0.300210
vt 0.643521 0.983509
vt 0.613737 0.987603
vt 0.613737 0.951140
vt 0.643448 0.955736
vt 0.692680 0.300234
vt 0.691079 0.330256
vt 0.675593 0.330232
vt 0.673595 0.300234
vt 0.643753 0.652235
vt 0.613737 0.650530
vt 0.613748 0.614066
vt 0.643753 0.612172
vt 0.647769 0.586151
vt 0.643753 0.556356
vt 0.671526 0.556356
vt 0.666853 0.586055
vt 0.671526 0.675535
vt 0.667511 0.705330
vt 0.648427 0.705234
vt 0.643753 0.675535
vt 0.673537 0.036463
vt 0.643753 0.032369
vt 0.643826 0.004596
vt 0.673537 0.000000
vt 0.643521 0.910583
vt 0.613737 0.914677
vt 0.613737 0.878214
vt 0.643448 0.882809
vt 0.647769 0.645740
vt 0.643753 0.615946
vt 0.671526 0.615946
vt 0.666853 0.645644
vt 0.643753 0.730655
vt 0.613737 0.732360
vt 0.613737 0.692297
vt 0.643741 0.694192
vt 0.643521 0.878213
vt 0.613737 0.874119
vt 0.613810 0.846346
vt 0.643521 0.841750
vt 0.671526 0.705330
vt 0.667511 0.735124
vt 0.648427 0.735028
vt 0.643753 0.705330
vt 0.675197 0.120105
vt 0.673595 0.090084
vt 0.692680 0.090084
vt 0.690682 0.120082
vt 0.643521 0.764729
vt 0.613737 0.768824
vt 0.613737 0.732360
vt 0.643448 0.736956
vt 0.643753 0.692298
vt 0.613737 0.690592
vt 0.613748 0.654129
vt 0.671527 0.437177
vt 0.667511 0.466972
vt 0.648427 0.466875
vt 0.643753 0.437177
vt 0.643753 0.411858
vt 0.613737 0.410153
vt 0.613748 0.373690
vt 0.643753 0.371795
vt 0.692680 0.120105
vt 0.691079 0.150127
vt 0.675593 0.150103
vt 0.673595 0.120105
vt 0.647768 0.675535
vt 0.643753 0.645740
vt 0.671526 0.645740
vt 0.666853 0.675439
vt 0.643753 0.570404
vt 0.613737 0.572109
vt 0.613737 0.532047
vt 0.643741 0.533941
vt 0.643521 0.805287
vt 0.613737 0.801193
vt 0.613810 0.773419
vt 0.643521 0.768824
vt 0.671527 0.496766
vt 0.667511 0.526561
vt 0.648427 0.526465
vt 0.643753 0.496766
vt 0.675196 0.360277
vt 0.673595 0.330256
vt 0.692680 0.330256
vt 0.690682 0.360253
vt 0.647769 0.615946
vt 0.643753 0.586151
vt 0.671526 0.586151
vt 0.666853 0.615849
vt 0.675196 0.240191
vt 0.673595 0.210170
vt 0.692680 0.210170
vt 0.690682 0.240168
vt 0.643521 0.837656
vt 0.613737 0.841750
vt 0.613737 0.805287
vt 0.643448 0.809882
vt 0.643753 0.451921
vt 0.613737 0.450216
vt 0.613748 0.413753
vt 0.643753 0.411858
vt 0.692680 0.240191
vt 0.691079 0.270213
vt 0.675593 0.270189
vt 0.673595 0.240191
vt 0.647769 0.496766
vt 0.643753 0.466972
vt 0.671527 0.466972
vt 0.666853 0.496670
vt 0.643753 0.370090
vt 0.613737 0.371795
vt 0.613737 0.331733
vt 0.643741 0.333627
vt 0.643521 0.951140
vt 0.613737 0.947046
vt 0.613810 0.919272
vt 0.643521 0.914677
vt 0.120257 0.000000
vt 0.150321 0.000000
vt 0.150321 1.000000
vt 0.120257 1.000000
vt 0.643753 0.490279
vt 0.613737 0.491984
vt 0.613737 0.451921
vt 0.643742 0.453815
vt 0.673537 0.072927
vt 0.643753 0.068832
vt 0.643826 0.041059
vt 0.673537 0.036463
vt 0.671526 0.526561
vt 0.667511 0.556356
vt 0.648427 0.556260
vt 0.643753 0.526561
vt 0.675196 0.180148
vt 0.673595 0.150127
vt 0.692680 0.150127
vt 0.690682 0.180125
vt 0.673537 0.105295
vt 0.643753 0.109390
vt 0.643753 0.072927
vt 0.673464 0.077522
vt 0.643753 0.532046
vt 0.613737 0.530341
vt 0.613748 0.493878
vt 0.643753 0.491984
vt 0.692680 0.180148
vt 0.691079 0.210170
vt 0.675593 0.210146
vt 0.673595 0.180148
vt 0.673595 0.371619
vt 0.643957 0.366575
vt 0.643753 0.342484
vt 0.673595 0.338841
vt 0.120257 1.000000
vt 0.090193 1.000000
vt 0.090193 0.000000
vt 0.120257 0.000000
vt 0.060128 1.000000
vt 0.030064 1.000000
vt 0.030064 0.000000
vt 0.060129 0.000000
vt 0.210450 0.000000
vt 0.240514 0.000000
vt 0.240514 1.000000
vt 0.210449 1.000000
vt 0.060129 0.000000
vt 0.090193 0.000000
vt 0.090193 1.000000
vt 0.060129 1.000000
vt 0.180385 1.000000
vt 0.150321 1.000000
vt 0.150321 0.000000
vt 0.180385 0.000000
vt 0.210449 1.000000
vt 0.180385 1.000000
vt 0.180385 0.000000
vt 0.210450 0.000000
vt 0.000000 0.000000
vt 0.030064 0.000000
vt 0.030064 1.000000
vt -0.000000 1.000000
vt 0.643400 0.160968
vt 0.613737 0.165866
vt 0.613737 0.124400
vt 0.643561 0.128190
vt 0.665652 0.735172
vt 0.667845 0.765156
vt 0.643753 0.765156
vt 0.645157 0.735124
vt 0.571153 0.611301
vt 0.541156 0.613311
vt 0.541156 0.568246
vt 0.571178 0.569834
vt 0.643561 0.248800
vt 0.613899 0.243902
vt 0.613737 0.211123
vt 0.643561 0.207333
vt 0.643753 0.795187
vt 0.645946 0.765203
vt 0.666441 0.765156
vt 0.667845 0.795187
vt 0.673391 0.333797
vt 0.643753 0.338841
vt 0.643753 0.306062
vt 0.673595 0.309705
vt 0.643400 0.119502
vt 0.613737 0.124400
vt 0.613737 0.082933
vt 0.643561 0.086724
vt 0.571178 0.523180
vt 0.541181 0.521169
vt 0.541156 0.479703
vt 0.571178 0.478114
vt 0.643561 0.207333
vt 0.613899 0.202435
vt 0.613737 0.169657
vt 0.643561 0.165866
vt 0.571178 0.748508
vt 0.541181 0.746497
vt 0.541156 0.705030
vt 0.571178 0.703442
vt 0.673595 0.273283
vt 0.643957 0.268239
vt 0.643753 0.244148
vt 0.673595 0.240505
vt 0.665652 0.825266
vt 0.667845 0.855250
vt 0.643753 0.855250
vt 0.645157 0.825218
vt 0.571153 0.791562
vt 0.541156 0.793573
vt 0.541156 0.748507
vt 0.571178 0.750096
vt 0.643561 0.331733
vt 0.613899 0.326835
vt 0.613737 0.294056
vt 0.643561 0.290266
vt 0.673595 0.030031
vt 0.675789 0.000047
vt 0.696284 -0.000000
vt 0.697688 0.030031
vt 0.673391 0.301018
vt 0.643753 0.306062
vt 0.643753 0.273283
vt 0.673595 0.276927
vt 0.571153 0.566235
vt 0.541156 0.568246
vt 0.541156 0.523180
vt 0.571178 0.524768
vt 0.643753 0.825218
vt 0.645946 0.795235
vt 0.666442 0.795187
vt 0.667845 0.825218
vt 0.673391 0.235461
vt 0.643753 0.240505
vt 0.643753 0.207726
vt 0.673595 0.211369
vt 0.643400 0.285368
vt 0.613737 0.290266
vt 0.613737 0.248800
vt 0.643561 0.252590
vt 0.571178 0.658377
vt 0.541181 0.656366
vt 0.541156 0.614899
vt 0.571178 0.613311
vt 0.673595 0.207726
vt 0.643957 0.202682
vt 0.643753 0.178590
vt 0.673595 0.174947
vt 0.665652 0.855297
vt 0.667845 0.885281
vt 0.643753 0.885281
vt 0.645157 0.855250
vt 0.571153 0.476104
vt 0.541156 0.478114
vt 0.541156 0.433049
vt 0.571178 0.434637
vt 0.571178 0.838638
vt 0.541181 0.836628
vt 0.541156 0.795161
vt 0.571178 0.793573
vt 0.643561 0.082933
vt 0.613899 0.078035
vt 0.613737 0.045257
vt 0.643561 0.041467
vt 0.673595 0.060063
vt 0.675789 0.030079
vt 0.696284 0.030031
vt 0.697688 0.060063
vt 0.673391 0.137124
vt 0.643753 0.142169
vt 0.643753 0.109390
vt 0.673595 0.113033
vt 0.643400 0.036569
vt 0.613737 0.041467
vt 0.613737 0.000000
vt 0.643561 0.003790
vt 0.571178 0.703442
vt 0.541181 0.701432
vt 0.541156 0.659965
vt 0.571178 0.658377
vt 0.673595 0.174947
vt 0.643957 0.169903
vt 0.643753 0.145812
vt 0.673595 0.142169
vt 0.665652 0.915360
vt 0.667845 0.945344
vt 0.643753 0.945344
vt 0.645157 0.915312
vt 0.541156 0.863659
vt 0.511092 0.863659
vt 0.511092 0.575772
vt 0.541156 0.575773
vt 0.673595 0.437177
vt 0.643957 0.432133
vt 0.643753 0.408041
vt 0.673595 0.404398
vt 0.665652 0.945391
vt 0.667845 0.975375
vt 0.643753 0.975375
vt 0.645157 0.945344
vt 0.571153 0.881693
vt 0.541156 0.883704
vt 0.541156 0.838638
vt 0.571178 0.840227
vt 0.570980 0.925171
vt 0.541318 0.920272
vt 0.541156 0.887494
vt 0.570980 0.883704
vt 0.643753 0.915312
vt 0.645946 0.885328
vt 0.666441 0.885281
vt 0.667845 0.915312
vt 0.673391 0.399354
vt 0.643753 0.404398
vt 0.643753 0.371619
vt 0.673595 0.375263
vt 0.570818 0.961739
vt 0.541156 0.966637
vt 0.541156 0.925171
vt 0.570980 0.928961
vt 0.613737 0.309145
vt 0.613737 0.339209
vt 0.592478 0.360468
vt 0.562414 0.360468
vt 0.541156 0.339209
vt 0.541156 0.309145
vt 0.562414 0.287886
vt 0.592478 0.287886
vt 0.511092 0.287886
vt 0.481027 0.287886
vt 0.481027 0.000000
vt 0.511092 0.000000
vt 0.541156 0.287886
vt 0.511092 0.287886
vt 0.541156 0.000000
vt 0.571220 0.287886
vt 0.541156 0.287886
vt 0.541156 0.000000
vt 0.571220 0.000000
vt 0.511091 0.575772
vt 0.481027 0.575772
vt 0.481027 0.287886
vt 0.511091 0.287886
vt 0.541156 0.575772
vt 0.511092 0.287886
vt 0.541156 0.287886
vt 0.481027 0.857621
vt 0.450963 0.857621
vt 0.450963 0.569735
vt 0.481027 0.569735
vt 0.511091 0.863658
vt 0.481027 0.863658
vt 0.481027 0.575772
vt 0.511091 0.575772
s 1
f 1/1/1 2/2/2 4/3/4 3/4/3
f 3/5/3 4/6/4 6/7/6 5/8/5
f 5/9/5 6/10/6 8/11/8 7/12/7
f 7/13/7 8/14/8 10/15/10 9/16/9
f 9/17/9 10/18/10 12/19/12 11/20/11
f 11/20/11 12/21/12 14/22/14 13/23/13
f 8/24/8 6/25/6 19/26/19 20/27/20
f 13/28/13 14/29/14 16/30/16 15/31/15
f 15/32/15 16/33/16 2/34/2 1/35/1
f 1/36/1 3/37/3 5/38/5 7/39/7 9/40/9 11/41/11 13/42/13 15/43/15
f 24/44/24 23/45/23 31/46/31 32/47/32
f 14/48/14 12/49/12 22/50/22 23/51/23
f 10/52/10 8/53/8 20/54/20 21/55/21
f 16/56/16 14/57/14 23/58/23 24/59/24
f 6/60/6 4/61/4 18/62/18 19/63/19
f 12/64/12 10/65/10 21/66/21 22/67/22
f 2/68/2 16/69/16 24/70/24 17/71/17
f 4/72/4 2/73/2 17/74/17 18/75/18
f 29/76/29 28/77/28 36/78/36 37/79/37
f 22/80/22 21/81/21 29/82/29 30/83/30
f 20/84/20 19/85/19 27/86/27 28/87/28
f 18/88/18 17/89/17 25/90/25 26/91/26
f 17/92/17 24/93/24 32/94/32 25/95/25
f 23/96/23 22/97/22 30/98/30 31/99/31
f 21/100/21 20/101/20 28/102/28 29/103/29
f 19/104/19 18/105/18 26/106/26 27/60/27
f 33/107/33 40/108/40 48/109/48 41/110/41
f 27/111/27 26/112/26 34/113/34 35/114/35
f 32/115/32 31/116/31 39/117/39 40/118/40
f 30/119/30 29/120/29 37/121/37 38/122/38
f 28/123/28 27/124/27 35/125/35 36/126/36
f 26/127/26 25/128/25 33/129/33 34/130/34
f 25/131/25 32/132/32 40/133/40 33/134/33
f 31/135/31 30/136/30 38/137/38 39/138/39
f 46/139/46 45/140/45 53/141/53 54/142/54
f 39/143/39 38/144/38 46/145/46 47/146/47
f 37/147/37 36/148/36 44/149/44 45/150/45
f 35/151/35 34/152/34 42/153/42 43/154/43
f 40/155/40 39/156/39 47/157/47 48/158/48
f 38/159/38 37/160/37 45/161/45 46/162/46
f 36/163/36 35/164/35 43/165/43 44/166/44
f 34/167/34 33/168/33 41/169/41 42/170/42
f 56/171/56 55/172/55 63/173/63 64/174/64
f 44/175/44 43/176/43 51/177/51 52/178/52
f 42/179/42 41/180/41 49/181/49 50/182/50
f 41/183/41 48/184/48 56/185/56 49/186/49
f 47/187/47 46/188/46 54/189/54 55/190/55
f 45/191/45 44/192/44 52/193/52 53/194/53
f 43/195/43 42/196/42 50/197/50 51/198/51
f 48/199/48 47/200/47 55/201/55 56/202/56
f 61/203/61 60/204/60 68/205/68 69/206/69
f 54/207/54 53/208/53 61/209/61 62/210/62
f 52/211/52 51/212/51 59/213/59 60/214/60
f 50/215/50 49/216/49 57/217/57 58/218/58
f 49/219/49 56/220/56 64/221/64 57/222/57
f 55/223/55 54/224/54 62/225/62 63/226/63
f 53/227/53 52/228/52 60/229/60 61/230/61
f 51/231/51 50/232/50 58/233/58 59/234/59
f 65/235/65 72/236/72 80/237/80 73/238/73
f 59/239/59 58/240/58 66/241/66 67/242/67
f 64/243/64 63/244/63 71/245/71 72/246/72
f 62/247/62 61/248/61 69/249/69 70/250/70
f 60/251/60 59/252/59 67/253/67 68/254/68
f 58/255/58 57/256/57 65/257/65 66/258/66
f 57/259/57 64/260/64 72/261/72 65/262/65
f 63/263/63 62/264/62 70/265/70 71/266/71
f 78/267/78 77/268/77 85/269/85 86/270/86
f 71/271/71 70/272/70 78/273/78 79/274/79
f 69/275/69 68/276/68 76/277/76 77/278/77
f 67/279/67 66/280/66 74/281/74 75/282/75
f 72/283/72 71/284/71 79/285/79 80/286/80
f 70/287/70 69/288/69 77/289/77 78/290/78
f 68/291/68 67/292/67 75/293/75 76/294/76
f 66/295/66 65/296/65 73/297/73 74/298/74
f 88/299/88 87/300/87 95/301/95 96/302/96
f 76/303/76 75/304/75 83/305/83 84/306/84
f 74/307/74 73/308/73 81/309/81 82/310/82
f 73/311/73 80/312/80 88/313/88 81/314/81
f 79/315/79 78/316/78 86/317/86 87/318/87
f 77/319/77 76/320/76 84/321/84 85/322/85
f 75/323/75 74/324/74 82/325/82 83/326/83
f 80/327/80 79/328/79 87/329/87 88/330/88
f 95/331/95 94/332/94 102/333/102 103/334/103
f 86/335/86 85/336/85 93/337/93 94/338/94
f 84/339/84 83/340/83 91/341/91 92/342/92
f 82/343/82 81/344/81 89/345/89 90/346/90
f 81/347/81 88/348/88 96/349/96 89/350/89
f 87/351/87 86/352/86 94/353/94 95/354/95
f 85/355/85 84/356/84 92/357/92 93/358/93
f 83/359/83 82/360/82 90/361/90 91/362/91
f 98/363/98 97/364/97 105/365/105 106/366/106
f 93/367/93 92/368/92 100/369/100 101/370/101
f 91/371/91 90/372/90 98/373/98 99/374/99
f 96/375/96 95/376/95 103/377/103 104/378/104
f 94/379/94 93/380/93 101/381/101 102/382/102
f 92/383/92 91/384/91 99/385/99 100/386/100
f 90/387/90 89/388/89 97/389/97 98/390/98
f 89/391/89 96/392/96 104/393/104 97/394/97
f 106/395/106 105/396/105 112/397/112 111/398/111 110/399/110 109/400/109 108/401/108 107/402/107
f 97/403/97 104/404/104 112/405/112 105/406/105
f 103/407/103 102/408/102 110/406/110 111/409/111
f 101/410/101 100/411/100 108/412/108 109/413/109
f 99/414/99 98/415/98 106/416/106 107/417/107
f 104/418/104 103/365/103 111/419/111 112/420/112
f 102/421/102 101/422/101 109/423/109 110/424/110
f 100/425/100 99/426/99 107/427/107 108/428/108
