# Blender 4.1.0
# www.blender.org
o Cube.001
v -0.873765 -0.069461 -3.137581
v -0.873765 0.530539 -3.137581
v -0.873765 -0.069461 3.137581
v -0.873765 0.530539 3.137581
v -0.714236 -0.069461 -3.137581
v -0.714236 0.530539 -3.137581
v -0.714236 -0.069461 3.137581
v -0.714236 0.530539 3.137581
v -1.202994 0.971470 -3.137581
v -1.202994 0.971470 3.137581
v -1.043465 0.971470 -3.137581
v -1.043465 0.971470 3.137581
v -1.202994 1.788664 -3.137581
v -1.202994 1.788664 3.137581
v -1.043465 1.788664 -3.137581
v -1.043465 1.788664 3.137581
v -0.873765 -0.069461 1.045860
v -0.873765 -0.069461 -1.045860
v -0.873765 0.530539 -1.045860
v -0.873765 0.530539 1.045860
v -0.714236 -0.069461 -1.045860
v -0.714236 -0.069461 1.045860
v -0.714236 0.530539 1.045860
v -0.714236 0.530539 -1.045860
v -1.202994 0.971470 -1.045860
v -1.202994 0.971470 1.045860
v -1.043465 0.971470 1.045860
v -1.043465 0.971470 -1.045860
v -1.202994 1.788664 -1.045860
v -1.202994 1.788664 1.045860
v -1.043465 1.788664 1.045860
v -1.043465 1.788664 -1.045860
v -1.154972 -0.069461 0.962447
v -1.154972 -0.069461 -0.962448
v -1.154972 0.530539 -0.962447
v -1.154972 0.530539 0.962448
v -0.995443 -0.069461 -0.962447
v -0.995443 -0.069461 0.962448
v -0.995443 0.530539 0.962447
v -0.995443 0.530539 -0.962448
v -1.202994 0.971470 -0.962447
v -1.202994 0.971470 0.962448
v -1.043465 0.971470 0.962447
v -1.043465 0.971470 -0.962448
v -1.202994 1.788664 -0.962447
v -1.202994 1.788664 0.962448
v -1.043465 1.788664 0.962447
v -1.043465 1.788664 -0.962448
v 0.873765 -0.069461 -3.137581
v 0.873765 0.530539 -3.137581
v 0.873765 -0.069461 3.137581
v 0.873765 0.530539 3.137581
v 0.714236 -0.069461 -3.137581
v 0.714236 0.530539 -3.137581
v 0.714236 -0.069461 3.137581
v 0.714236 0.530539 3.137581
v 1.202994 0.971470 -3.137581
v 1.202994 0.971470 3.137581
v 1.043465 0.971470 -3.137581
v 1.043465 0.971470 3.137581
v 1.202994 1.788664 -3.137581
v 1.202994 1.788664 3.137581
v 1.043465 1.788664 -3.137581
v 1.043465 1.788664 3.137581
v 0.873765 -0.069461 1.045860
v 0.873765 -0.069461 -1.045860
v 0.873765 0.530539 -1.045860
v 0.873765 0.530539 1.045860
v 0.714236 -0.069461 -1.045860
v 0.714236 -0.069461 1.045860
v 0.714236 0.530539 1.045860
v 0.714236 0.530539 -1.045860
v 1.202994 0.971470 -1.045860
v 1.202994 0.971470 1.045860
v 1.043465 0.971470 1.045860
v 1.043465 0.971470 -1.045860
v 1.202994 1.788664 -1.045860
v 1.202994 1.788664 1.045860
v 1.043465 1.788664 1.045860
v 1.043465 1.788664 -1.045860
v 1.154972 -0.069461 0.962447
v 1.154972 -0.069461 -0.962448
v 1.154972 0.530539 -0.962447
v 1.154972 0.530539 0.962448
v 0.995443 -0.069461 -0.962447
v 0.995443 -0.069461 0.962448
v 0.995443 0.530539 0.962447
v 0.995443 0.530539 -0.962448
v 1.202994 0.971470 -0.962447
v 1.202994 0.971470 0.962448
v 1.043465 0.971470 0.962447
v 1.043465 0.971470 -0.962448
v 1.202994 1.788664 -0.962447
v 1.202994 1.788664 0.962448
v 1.043465 1.788664 0.962447
v 1.043465 1.788664 -0.962448
vn -1.0000 -0.0000 -0.0000
vn -0.0000 -0.0000 1.0000
vn 1.0000 -0.0000 -0.0000
vn -0.0000 -0.0000 -1.0000
vn -0.0000 -1.0000 -0.0000
vn 0.8013 0.5983 -0.0000
vn -0.8013 -0.5983 -0.0000
vn -0.0000 1.0000 -0.0000
vn -0.4985 -0.2132 -0.8403
vn 0.4985 0.2132 -0.8403
vn 0.2844 -0.0000 0.9587
vn -0.2844 -0.0000 0.9587
vn -0.2844 -0.0000 -0.9587
vn 0.2844 -0.0000 -0.9587
vn 0.4985 0.2132 0.8403
vn 0.9941 0.1083 -0.0000
vn -0.4985 -0.2132 0.8403
vn -0.9941 -0.1083 -0.0000
vn -0.8013 0.5983 -0.0000
vn 0.8013 -0.5983 -0.0000
vn 0.4985 -0.2132 -0.8403
vn -0.4985 0.2132 -0.8403
vn -0.4985 0.2132 0.8403
vn -0.9941 0.1083 -0.0000
vn 0.4985 -0.2132 0.8403
vn 0.9941 -0.1083 -0.0000
vt 0.000000 0.242293
vt -0.000000 0.000000
vt 0.069500 -0.000000
vt 0.069500 0.242293
vt 0.035472 0.944755
vt 0.017595 0.949433
vt -0.000000 0.882197
vt 0.017877 0.877519
vt 0.215234 0.242293
vt 0.215234 0.000000
vt 0.284735 0.000000
vt 0.284735 0.242293
vt 0.107927 0.949433
vt 0.090050 0.944755
vt 0.107645 0.877519
vt 0.125522 0.882197
vt 0.879416 0.484585
vt 0.879416 0.726878
vt 0.860937 0.726878
vt 0.860937 0.484585
vt 0.284735 0.484585
vt 0.335810 0.484585
vt 0.335810 0.726878
vt 0.284735 0.726878
vt 0.083681 0.818453
vt 0.107645 0.726878
vt 0.125522 0.731556
vt 0.101558 0.823131
vt 0.069500 0.484585
vt 0.120575 0.484585
vt 0.120575 0.726878
vt 0.069501 0.726878
vt 0.023964 0.823131
vt 0.041841 0.818453
vt 0.981521 0.484585
vt 0.981521 0.726878
vt 0.963042 0.726878
vt 0.963042 0.484585
vt -0.000000 0.731556
vt 0.017877 0.726878
vt 0.430469 0.484585
vt 0.430469 0.726878
vt 0.215234 0.484585
vt 0.215234 0.726878
vt 0.120575 -0.000000
vt 0.215234 -0.000000
vt 0.215234 0.242293
vt 0.120575 0.242293
vt 0.120575 0.474923
vt 0.215234 0.474923
vt 0.335810 0.000000
vt 0.430469 0.000000
vt 0.430469 0.242293
vt 0.335810 0.242293
vt 0.335810 0.474923
vt 0.430469 0.474923
vt 0.981521 -0.000000
vt 0.981521 0.242293
vt 0.963042 0.242293
vt 0.963042 -0.000000
vt 0.981521 0.474923
vt 0.963042 0.474923
vt 0.170565 0.778155
vt 0.167363 0.726878
vt 0.203104 0.779656
vt 0.242049 0.778155
vt 0.238846 0.726878
vt 0.274588 0.779656
vt 0.879416 0.000000
vt 0.879416 0.242293
vt 0.860937 0.242293
vt 0.860937 0.000000
vt 0.911989 0.474923
vt 0.893511 0.474923
vt 0.215234 0.726878
vt 0.215234 0.484585
vt 0.310329 0.847581
vt 0.277790 0.849082
vt 0.274588 0.779656
vt 0.307126 0.778155
vt 0.000000 0.726878
vt 0.000000 0.484585
vt 0.417554 0.847581
vt 0.385016 0.849082
vt 0.381813 0.779656
vt 0.414351 0.778155
vt 0.199901 0.849082
vt 0.167363 0.847581
vt 0.000000 0.474923
vt 0.000000 0.251955
vt 0.069500 0.251955
vt 0.069500 0.474923
vt 0.271385 0.849082
vt 0.238846 0.847581
vt 0.215234 0.474923
vt 0.215234 0.251955
vt 0.284735 0.251955
vt 0.284735 0.474923
vt 0.911990 0.251955
vt 0.893511 0.251955
vt 0.310329 0.726878
vt 0.335810 0.251955
vt 0.417554 0.726878
vt 0.120575 0.251955
vt 0.981521 0.251955
vt 0.963042 0.251955
vt 0.430469 0.251955
vt 0.215234 0.251955
vt 0.430469 0.484585
vt 0.499969 0.484585
vt 0.499969 0.726878
vt 0.430469 0.726878
vt 0.048210 0.944755
vt 0.065804 0.877518
vt 0.083681 0.882197
vt 0.066087 0.949433
vt 0.645703 0.484585
vt 0.715203 0.484585
vt 0.715203 0.726878
vt 0.645703 0.726878
vt 0.143117 0.949433
vt 0.125522 0.882197
vt 0.143399 0.877519
vt 0.160994 0.944755
vt 0.944563 0.484585
vt 0.963042 0.484585
vt 0.944563 0.726878
vt 0.715203 0.242293
vt 0.715203 -0.000000
vt 0.766278 0.000000
vt 0.766278 0.242293
vt 0.167363 0.818453
vt 0.149486 0.823131
vt 0.143399 0.726878
vt 0.499969 0.242293
vt 0.499969 -0.000000
vt 0.551044 -0.000000
vt 0.551044 0.242293
vt 0.041841 0.818453
vt 0.059718 0.823131
vt 0.981521 0.484585
vt 1.000000 0.484585
vt 1.000000 0.726878
vt 0.981521 0.726878
vt 0.065804 0.726878
vt 0.083681 0.731556
vt 0.860937 0.000000
vt 0.860937 0.242293
vt 0.645703 -0.000000
vt 0.645703 0.242293
vt 0.551044 0.726878
vt 0.551044 0.484585
vt 0.645703 0.484585
vt 0.645703 0.726878
vt 0.551044 0.251955
vt 0.645703 0.251955
vt 0.766278 0.726878
vt 0.766278 0.484585
vt 0.860937 0.484585
vt 0.860937 0.726878
vt 0.766278 0.251955
vt 0.860937 0.251955
vt 0.981521 0.000000
vt 1.000000 0.000000
vt 1.000000 0.242293
vt 0.981521 0.242293
vt 0.981521 0.474923
vt 1.000000 0.474923
vt 0.342868 0.778155
vt 0.310329 0.779656
vt 0.346071 0.726878
vt 0.235643 0.778155
vt 0.203104 0.779656
vt 0.944563 0.000000
vt 0.963042 0.000000
vt 0.963042 0.242293
vt 0.944563 0.242293
vt 0.911990 0.474923
vt 0.930468 0.474923
vt 0.645703 -0.000000
vt 0.645703 0.242293
vt 0.417554 0.847581
vt 0.420757 0.778155
vt 0.453296 0.779656
vt 0.450093 0.849082
vt 0.430469 -0.000000
vt 0.430469 0.242293
vt 0.346071 0.847581
vt 0.349274 0.778155
vt 0.378610 0.849082
vt 0.313532 0.849082
vt 0.346071 0.847581
vt 0.430469 0.251955
vt 0.499969 0.251955
vt 0.499969 0.474923
vt 0.206307 0.849082
vt 0.645703 0.251955
vt 0.715203 0.251955
vt 0.715203 0.474923
vt 0.645703 0.474923
vt 0.930468 0.251955
vt 0.911990 0.251955
vt 0.417554 0.726878
vt 0.766278 0.474923
vt 0.551044 0.474923
vt 1.000000 0.251955
vt 0.981521 0.251955
vt 0.860937 0.474923
vt 0.645703 0.474923
s 0
f 17/1/1 3/2/1 4/3/1 20/4/1
f 3/5/2 7/6/2 8/7/2 4/8/2
f 21/9/3 5/10/3 6/11/3 24/12/3
f 5/13/4 1/14/4 2/15/4 6/16/4
f 18/17/5 1/18/5 5/19/5 21/20/5
f 23/21/6 27/22/6 12/23/6 8/24/6
f 9/25/4 13/26/4 15/27/4 11/28/4
f 19/29/7 25/30/7 9/31/7 2/32/7
f 2/15/4 9/25/4 11/28/4 6/16/4
f 8/7/2 12/33/2 10/34/2 4/8/2
f 32/35/8 15/36/8 13/37/8 29/38/8
f 12/33/2 16/39/2 14/40/2 10/34/2
f 27/22/3 31/41/3 16/42/3 12/23/3
f 25/30/1 29/43/1 13/44/1 9/31/1
f 10/45/1 14/46/1 30/47/1 26/48/1
f 41/49/1 45/50/1 29/43/1 25/30/1
f 11/51/3 15/52/3 32/53/3 28/54/3
f 43/55/3 47/56/3 31/41/3 27/22/3
f 16/57/8 31/58/8 30/59/8 14/60/8
f 48/61/8 32/35/8 29/38/8 45/62/8
f 4/3/7 10/45/7 26/48/7 20/4/7
f 35/63/9 41/64/9 25/64/9 19/65/9
f 6/11/6 11/51/6 28/54/6 24/12/6
f 39/66/10 43/67/10 27/67/10 23/68/10
f 3/69/5 17/70/5 22/71/5 7/72/5
f 34/73/5 18/17/5 21/20/5 37/74/5
f 7/75/3 22/76/3 23/21/3 8/24/3
f 37/77/11 21/78/11 24/79/11 40/80/11
f 1/81/1 18/82/1 19/29/1 2/32/1
f 33/83/12 17/84/12 20/85/12 36/86/12
f 18/87/13 34/88/13 35/63/13 19/65/13
f 34/89/1 33/90/1 36/91/1 35/92/1
f 22/93/14 38/94/14 39/66/14 23/68/14
f 38/95/3 37/96/3 40/97/3 39/98/3
f 17/70/5 33/99/5 38/100/5 22/71/5
f 33/99/5 34/73/5 37/74/5 38/100/5
f 24/79/15 28/101/15 44/101/15 40/80/15
f 40/97/16 44/102/16 43/55/16 39/98/16
f 20/85/17 26/103/17 42/103/17 36/86/17
f 36/91/18 42/104/18 41/49/18 35/92/18
f 31/58/8 47/105/8 46/106/8 30/59/8
f 47/105/8 48/61/8 45/62/8 46/106/8
f 28/54/3 32/53/3 48/107/3 44/102/3
f 44/102/3 48/107/3 47/56/3 43/55/3
f 26/48/1 30/47/1 46/108/1 42/104/1
f 42/104/1 46/108/1 45/50/1 41/49/1
f 65/109/3 68/110/3 52/111/3 51/112/3
f 51/113/2 52/114/2 56/115/2 55/116/2
f 69/117/1 72/118/1 54/119/1 53/120/1
f 53/121/4 54/122/4 50/123/4 49/124/4
f 66/125/5 69/126/5 53/37/5 49/127/5
f 71/128/19 56/129/19 60/130/19 75/131/19
f 57/132/4 59/133/4 63/27/4 61/134/4
f 67/135/20 50/136/20 57/137/20 73/138/20
f 50/123/4 54/122/4 59/133/4 57/132/4
f 56/115/2 52/114/2 58/139/2 60/140/2
f 80/141/8 77/142/8 61/143/8 63/144/8
f 60/140/2 58/139/2 62/145/2 64/146/2
f 75/131/1 60/130/1 64/147/1 79/148/1
f 73/138/3 57/137/3 61/149/3 77/150/3
f 58/151/3 74/152/3 78/153/3 62/154/3
f 89/155/3 73/138/3 77/150/3 93/156/3
f 59/157/1 76/158/1 80/159/1 63/160/1
f 91/161/1 75/131/1 79/148/1 95/162/1
f 64/163/8 62/164/8 78/165/8 79/166/8
f 96/167/8 93/168/8 77/142/8 80/141/8
f 52/111/20 68/110/20 74/152/20 58/151/20
f 83/169/21 67/170/21 73/171/21 89/171/21
f 54/119/19 72/118/19 76/158/19 59/157/19
f 87/172/22 71/173/22 75/67/22 91/67/22
f 51/174/5 55/175/5 70/176/5 65/177/5
f 82/178/5 85/179/5 69/126/5 66/125/5
f 55/180/1 56/129/1 71/128/1 70/181/1
f 85/182/12 88/183/12 72/184/12 69/185/12
f 49/186/3 50/136/3 67/135/3 66/187/3
f 81/188/11 84/189/11 68/85/11 65/190/11
f 66/191/14 67/170/14 83/169/14 82/192/14
f 82/193/3 83/194/3 84/195/3 81/56/3
f 70/196/13 71/173/13 87/172/13 86/94/13
f 86/197/1 87/198/1 88/199/1 85/200/1
f 65/177/5 70/176/5 86/201/5 81/202/5
f 81/202/5 86/201/5 85/179/5 82/178/5
f 72/184/23 88/183/23 92/203/23 76/203/23
f 88/199/24 87/198/24 91/161/24 92/204/24
f 68/85/25 84/189/25 90/171/25 74/171/25
f 84/195/26 83/194/26 89/155/26 90/205/26
f 79/166/8 78/165/8 94/206/8 95/207/8
f 95/207/8 94/206/8 93/168/8 96/167/8
f 76/158/1 92/204/1 96/208/1 80/159/1
f 92/204/1 91/161/1 95/162/1 96/208/1
f 74/152/3 90/205/3 94/209/3 78/153/3
f 90/205/3 89/155/3 93/156/3 94/209/3
