# Blender 4.1.0
# www.blender.org
mtllib arrow.mtl
o Cube.001
v -4.456877 0.355966 -0.355966
v -4.456877 -0.355966 -0.355966
v -4.456877 0.355966 0.355966
v -4.456877 -0.355966 0.355966
v -4.412255 -0.699620 0.699620
v -4.412255 0.699620 0.699620
v -4.412255 -0.699620 -0.699620
v -4.412255 0.699620 -0.699620
v -5.707235 0.000000 0.000000
v -5.707235 0.000000 0.000000
v -5.707235 0.000000 0.000000
v -5.707235 0.000000 0.000000
v 0.000003 0.355966 -0.355966
v 0.000003 -0.355966 -0.355966
v 0.000003 -0.355966 0.355966
v 0.000003 0.355966 0.355966
vn -0.0000 1.0000 -0.0000
vn -0.0000 -0.0000 1.0000
vn 1.0000 -0.0000 -0.0000
vn -1.0000 -0.0000 -0.0000
vn 0.4753 -0.0000 -0.8798
vn 0.4753 0.8798 -0.0000
vn 0.4753 -0.0000 0.8798
vn 0.4753 -0.8798 -0.0000
vn -0.0000 -0.0000 -1.0000
vn -0.0000 -1.0000 -0.0000
vt 0.653867 0.500000
vt 0.875000 0.500000
vt 0.875000 0.750000
vt 0.653867 0.750000
vt 0.375000 0.778867
vt 0.625000 0.778867
vt 0.625000 1.000000
vt 0.375000 1.000000
vt 0.346133 0.500000
vt 0.346133 0.750000
vt 0.000000 0.000000
vt 0.375000 0.250000
vt 0.625000 0.250000
vt 0.625000 0.471133
vt 0.375000 0.471133
vt 0.125000 0.500000
vt 0.125000 0.750000
s 0
usemtl Material.001
f 13/1/1 1/2/1 3/3/1 16/4/1
f 15/5/2 16/6/2 3/7/2 4/8/2
f 14/9/3 13/1/3 16/6/3 15/10/3
f 7/11/4 5/11/4 6/11/4 8/11/4
f 11/11/2 12/11/2 10/11/2 9/11/2
f 6/11/5 5/11/5 9/11/5 10/11/5
f 5/11/6 7/11/6 11/11/6 9/11/6
f 7/11/7 8/11/7 12/11/7 11/11/7
f 8/11/8 6/11/8 10/11/8 12/11/8
f 2/12/9 1/13/9 13/14/9 14/15/9
f 2/16/10 14/9/10 15/10/10 4/17/10
