# Blender 4.0.2
# www.blender.org
mtllib arrow.mtl
o Cube
v 0.607616 0.355966 -0.355966
v 0.607616 -0.355966 -0.355966
v 0.607616 0.355966 0.355966
v 0.607616 -0.355966 0.355966
v -4.456877 0.355966 -0.355966
v -4.456877 -0.355966 -0.355966
v -4.456877 0.355966 0.355966
v -4.456877 -0.355966 0.355966
v -4.412255 -0.699620 0.699620
v -4.412255 0.699620 0.699620
v -4.412255 -0.699620 -0.699620
v -4.412255 0.699620 -0.699620
v -5.707235 0.000000 0.000000
v -5.707235 0.000000 0.000000
v -5.707235 0.000000 0.000000
v -5.707235 0.000000 0.000000
vn -0.0000 1.0000 -0.0000
vn -0.0000 -0.0000 1.0000
vn -0.0000 -1.0000 -0.0000
vn 1.0000 -0.0000 -0.0000
vn -0.0000 -0.0000 -1.0000
vn -1.0000 -0.0000 -0.0000
vn 0.4753 -0.0000 -0.8798
vn 0.4753 0.8798 -0.0000
vn 0.4753 -0.0000 0.8798
vn 0.4753 -0.8798 -0.0000
vt 0.625000 0.500000
vt 0.875000 0.500000
vt 0.875000 0.750000
vt 0.625000 0.750000
vt 0.375000 0.750000
vt 0.625000 1.000000
vt 0.375000 1.000000
vt 0.125000 0.500000
vt 0.375000 0.500000
vt 0.125000 0.750000
vt 0.375000 0.250000
vt 0.625000 0.250000
vt 0.000000 0.000000
s 0
usemtl Material
f 1/1/1 5/2/1 7/3/1 3/4/1
f 4/5/2 3/4/2 7/6/2 8/7/2
f 6/8/3 2/9/3 4/5/3 8/10/3
f 2/9/4 1/1/4 3/4/4 4/5/4
f 6/11/5 5/12/5 1/1/5 2/9/5
f 11/13/6 9/13/6 10/13/6 12/13/6
f 15/13/1 16/13/1 14/13/1 13/13/1
f 10/13/7 9/13/7 13/13/7 14/13/7
f 9/13/8 11/13/8 15/13/8 13/13/8
f 11/13/9 12/13/9 16/13/9 15/13/9
f 12/13/10 10/13/10 14/13/10 16/13/10
