# Blender 4.1.1
# www.blender.org
mtllib torus.mtl
o Plane
v 0.125000 0.000020 -1.875000
v 0.125000 0.000023 -2.125000
v -0.125000 0.000021 -1.875000
v -0.125000 0.000023 -2.125000
v 0.125000 -0.446765 -1.820996
v 0.125000 -0.506334 -2.063795
v -0.125000 -0.446765 -1.820996
v -0.125000 -0.506334 -2.063795
v 0.125000 -0.867011 -1.662503
v 0.125000 -0.982612 -1.884171
v -0.125000 -0.867011 -1.662503
v -0.125000 -0.982612 -1.884171
v 0.125000 -0.867011 -1.662503
v 0.125000 -0.982612 -1.884171
v -0.125000 -0.867011 -1.662503
v -0.125000 -0.982612 -1.884171
v 0.125000 -1.259812 -1.388704
v 0.125000 -1.427787 -1.573864
v -0.125000 -1.259812 -1.388704
v -0.125000 -1.427787 -1.573864
v 0.125000 -1.602318 -0.973756
v 0.125000 -1.815961 -1.103590
v -0.125000 -1.602318 -0.973756
v -0.125000 -1.815961 -1.103590
v 0.125000 -1.788009 -0.564490
v 0.125000 -2.026410 -0.639756
v -0.125000 -1.788009 -0.564490
v -0.125000 -2.026410 -0.639756
v 0.125000 -1.875000 -0.000041
v 0.125000 -2.125000 -0.000046
v -0.125000 -1.875000 -0.000041
v -0.125000 -2.125000 -0.000046
v -0.125000 -0.000023 2.125000
v -0.125000 -0.000021 1.875000
v 0.125000 -0.000023 2.125000
v 0.125000 -0.000021 1.875000
v 0.125000 1.820996 -0.446765
v 0.125000 2.063795 -0.506334
v -0.125000 1.820996 -0.446765
v -0.125000 2.063795 -0.506334
v 0.125000 1.662503 -0.867011
v 0.125000 1.884171 -0.982612
v -0.125000 1.662503 -0.867011
v -0.125000 1.884171 -0.982612
v 0.125000 1.662503 -0.867011
v 0.125000 1.884171 -0.982612
v -0.125000 1.662503 -0.867011
v -0.125000 1.884171 -0.982612
v 0.125000 1.388704 -1.259812
v 0.125000 1.573864 -1.427787
v -0.125000 1.388704 -1.259812
v -0.125000 1.573864 -1.427787
v 0.125000 0.973756 -1.602318
v 0.125000 1.103590 -1.815961
v -0.125000 0.973756 -1.602318
v -0.125000 1.103590 -1.815961
v 0.125000 0.564490 -1.788009
v 0.125000 0.639756 -2.026410
v -0.125000 0.564490 -1.788009
v -0.125000 0.639756 -2.026410
v -0.125000 0.446765 1.820996
v 0.125000 0.506334 2.063795
v -0.125000 0.506334 2.063795
v 0.125000 0.446765 1.820996
v 0.125000 0.867010 1.662504
v 0.125000 0.982612 1.884171
v -0.125000 0.867010 1.662504
v -0.125000 0.982612 1.884171
v 0.125000 0.867010 1.662504
v 0.125000 0.982612 1.884171
v -0.125000 0.867010 1.662504
v -0.125000 0.982612 1.884171
v 0.125000 1.259812 1.388704
v 0.125000 1.427787 1.573864
v -0.125000 1.259812 1.388704
v -0.125000 1.427787 1.573864
v 0.125000 1.602318 0.973756
v 0.125000 1.815961 1.103590
v -0.125000 1.602318 0.973756
v -0.124999 1.815961 1.103590
v 0.125000 1.788009 0.564491
v 0.125001 2.026410 0.639756
v -0.125000 1.788009 0.564491
v -0.124999 2.026410 0.639756
v 0.125000 1.875000 0.000041
v 0.125000 2.125000 0.000046
v -0.125000 1.875000 0.000041
v -0.125000 2.125000 0.000046
v 0.125000 -1.820996 0.446765
v 0.125000 -2.063795 0.506333
v -0.125000 -1.820996 0.446765
v -0.125000 -2.063795 0.506334
v 0.125000 -1.662503 0.867011
v 0.125000 -1.884171 0.982612
v -0.125000 -1.662503 0.867011
v -0.125000 -1.884171 0.982612
v 0.125000 -1.662503 0.867011
v 0.125000 -1.884171 0.982612
v -0.125000 -1.662503 0.867011
v -0.125000 -1.884171 0.982612
v 0.125000 -1.388704 1.259812
v 0.125000 -1.573864 1.427787
v -0.125000 -1.388704 1.259812
v -0.125000 -1.573864 1.427787
v 0.125000 -0.973757 1.602318
v 0.125000 -1.103591 1.815960
v -0.125000 -0.973756 1.602318
v -0.125000 -1.103591 1.815961
v 0.125000 -0.564491 1.788009
v 0.125000 -0.639756 2.026410
v -0.125000 -0.564491 1.788009
v -0.125000 -0.639756 2.026410
vn 1.0000 -0.0000 -0.0000
vn -0.0000 0.3529 0.9357
vn -1.0000 -0.0000 -0.0000
vn -0.0000 0.1200 0.9928
vn -0.0000 -0.1200 -0.9928
vn -0.0000 1.0000 -0.0000
vn -0.0000 -0.3529 -0.9357
vn -0.0000 0.5718 0.8204
vn -0.0000 -0.5718 -0.8204
vn -0.0000 0.9107 0.4132
vn -0.0000 0.7712 0.6366
vn -0.0000 -0.7712 -0.6366
vn -0.0000 -0.9107 -0.4132
vn -0.0000 0.9883 0.1523
vn -0.0000 -0.9883 -0.1523
vn -0.0000 -0.9357 0.3529
vn -0.0000 0.9357 -0.3529
vn -0.0000 -0.8204 0.5718
vn -0.0000 0.8204 -0.5718
vn -0.0000 -0.4132 0.9107
vn -0.0000 -0.6366 0.7712
vn -0.0000 0.6366 -0.7712
vn -0.0000 0.4132 -0.9107
vn -0.0000 -0.1523 0.9883
vn -0.0000 0.1523 -0.9883
vn -0.0000 0.9928 -0.1200
vn -0.0000 -0.9928 0.1200
vt 1.000000 1.000000
vt 0.000000 1.000000
vt 1.000000 0.000000
vt 0.000000 0.000000
s 0
f 63/1/1 61/2/1 67/2/1 68/1/1
f 6/3/2 8/1/2 12/1/2 10/3/2
f 4/1/1 3/2/1 7/2/1 8/1/1
f 1/4/3 2/3/3 6/3/3 5/4/3
f 2/3/4 4/1/4 8/1/4 6/3/4
f 3/2/5 1/4/5 5/4/5 7/2/5
f 10/3/6 12/1/6 16/1/6 14/3/6
f 7/2/7 5/4/7 9/4/7 11/2/7
f 8/1/1 7/2/1 11/2/1 12/1/1
f 5/4/3 6/3/3 10/3/3 9/4/3
f 16/1/1 15/2/1 19/2/1 20/1/1
f 11/2/6 9/4/6 13/4/6 15/2/6
f 12/1/6 11/2/6 15/2/6 16/1/6
f 9/4/6 10/3/6 14/3/6 13/4/6
f 17/4/3 18/3/3 22/3/3 21/4/3
f 13/4/3 14/3/3 18/3/3 17/4/3
f 14/3/8 16/1/8 20/1/8 18/3/8
f 15/2/9 13/4/9 17/4/9 19/2/9
f 22/3/10 24/1/10 28/1/10 26/3/10
f 18/3/11 20/1/11 24/1/11 22/3/11
f 19/2/12 17/4/12 21/4/12 23/2/12
f 20/1/1 19/2/1 23/2/1 24/1/1
f 28/1/1 27/2/1 31/2/1 32/1/1
f 23/2/13 21/4/13 25/4/13 27/2/13
f 24/1/1 23/2/1 27/2/1 28/1/1
f 21/4/3 22/3/3 26/3/3 25/4/3
f 62/3/7 63/1/7 68/1/7 66/3/7
f 25/4/3 26/3/3 30/3/3 29/4/3
f 26/3/14 28/1/14 32/1/14 30/3/14
f 27/2/15 25/4/15 29/4/15 31/2/15
f 34/2/4 36/4/4 64/4/4 61/2/4
f 38/3/16 40/1/16 44/1/16 42/3/16
f 33/1/1 34/2/1 61/2/1 63/1/1
f 35/3/5 33/1/5 63/1/5 62/3/5
f 36/4/3 35/3/3 62/3/3 64/4/3
f 66/3/6 68/1/6 72/1/6 70/3/6
f 42/3/6 44/1/6 48/1/6 46/3/6
f 39/2/17 37/4/17 41/4/17 43/2/17
f 40/1/1 39/2/1 43/2/1 44/1/1
f 37/4/3 38/3/3 42/3/3 41/4/3
f 48/1/1 47/2/1 51/2/1 52/1/1
f 43/2/6 41/4/6 45/4/6 47/2/6
f 44/1/6 43/2/6 47/2/6 48/1/6
f 41/4/6 42/3/6 46/3/6 45/4/6
f 49/4/3 50/3/3 54/3/3 53/4/3
f 45/4/3 46/3/3 50/3/3 49/4/3
f 46/3/18 48/1/18 52/1/18 50/3/18
f 47/2/19 45/4/19 49/4/19 51/2/19
f 54/3/20 56/1/20 60/1/20 58/3/20
f 50/3/21 52/1/21 56/1/21 54/3/21
f 51/2/22 49/4/22 53/4/22 55/2/22
f 52/1/1 51/2/1 55/2/1 56/1/1
f 60/1/1 59/2/1 3/2/1 4/1/1
f 55/2/23 53/4/23 57/4/23 59/2/23
f 56/1/1 55/2/1 59/2/1 60/1/1
f 53/4/3 54/3/3 58/3/3 57/4/3
f 61/2/2 64/4/2 65/4/2 67/2/2
f 57/4/3 58/3/3 2/3/3 1/4/3
f 58/3/24 60/1/24 4/1/24 2/3/24
f 59/2/25 57/4/25 1/4/25 3/2/25
f 64/4/3 62/3/3 66/3/3 65/4/3
f 72/1/1 71/2/1 75/2/1 76/1/1
f 67/2/6 65/4/6 69/4/6 71/2/6
f 68/1/6 67/2/6 71/2/6 72/1/6
f 65/4/6 66/3/6 70/3/6 69/4/6
f 73/4/3 74/3/3 78/3/3 77/4/3
f 69/4/3 70/3/3 74/3/3 73/4/3
f 70/3/9 72/1/9 76/1/9 74/3/9
f 71/2/8 69/4/8 73/4/8 75/2/8
f 78/3/13 80/1/13 84/1/13 82/3/13
f 74/3/12 76/1/12 80/1/12 78/3/12
f 75/2/11 73/4/11 77/4/11 79/2/11
f 76/1/1 75/2/1 79/2/1 80/1/1
f 84/1/1 83/2/1 87/2/1 88/1/1
f 79/2/10 77/4/10 81/4/10 83/2/10
f 80/1/1 79/2/1 83/2/1 84/1/1
f 77/4/3 78/3/3 82/3/3 81/4/3
f 81/4/3 82/3/3 86/3/3 85/4/3
f 82/3/15 84/1/15 88/1/15 86/3/15
f 83/2/14 81/4/14 85/4/14 87/2/14
f 90/3/17 92/1/17 96/1/17 94/3/17
f 94/3/6 96/1/6 100/1/6 98/3/6
f 91/2/16 89/4/16 93/4/16 95/2/16
f 92/1/1 91/2/1 95/2/1 96/1/1
f 89/4/3 90/3/3 94/3/3 93/4/3
f 100/1/1 99/2/1 103/2/1 104/1/1
f 95/2/6 93/4/6 97/4/6 99/2/6
f 96/1/6 95/2/6 99/2/6 100/1/6
f 93/4/6 94/3/6 98/3/6 97/4/6
f 101/4/3 102/3/3 106/3/3 105/4/3
f 97/4/3 98/3/3 102/3/3 101/4/3
f 98/3/19 100/1/19 104/1/19 102/3/19
f 99/2/18 97/4/18 101/4/18 103/2/18
f 106/3/23 108/1/23 112/1/23 110/3/23
f 102/3/22 104/1/22 108/1/22 106/3/22
f 103/2/21 101/4/21 105/4/21 107/2/21
f 104/1/1 103/2/1 107/2/1 108/1/1
f 112/1/1 111/2/1 34/2/1 33/1/1
f 107/2/20 105/4/20 109/4/20 111/2/20
f 108/1/1 107/2/1 111/2/1 112/1/1
f 105/4/3 106/3/3 110/3/3 109/4/3
f 109/4/3 110/3/3 35/3/3 36/4/3
f 110/3/25 112/1/25 33/1/25 35/3/25
f 111/2/24 109/4/24 36/4/24 34/2/24
f 39/2/1 40/1/1 88/1/1 87/2/1
f 37/4/26 39/2/26 87/2/26 85/4/26
f 38/3/3 37/4/3 85/4/3 86/3/3
f 40/1/27 38/3/27 86/3/27 88/1/27
f 32/1/1 31/2/1 91/2/1 92/1/1
f 30/3/26 32/1/26 92/1/26 90/3/26
f 29/4/3 30/3/3 90/3/3 89/4/3
f 31/2/27 29/4/27 89/4/27 91/2/27
